<svg xmlns="http://www.w3.org/2000/svg" viewBox="0 0 800 500">
  <defs>
    <linearGradient id="bg" x1="0%" y1="0%" x2="100%" y2="100%">
      <stop offset="0%" style="stop-color:#0d1520"/>
      <stop offset="100%" style="stop-color:#0a0e18"/>
    </linearGradient>
    <linearGradient id="acc" x1="0%" y1="0%" x2="100%" y2="100%">
      <stop offset="0%" style="stop-color:#e8431a"/>
      <stop offset="100%" style="stop-color:#c03510"/>
    </linearGradient>
  </defs>
  <rect width="800" height="500" fill="url(#bg)"/>
  <g stroke="#ffffff" stroke-opacity="0.03" stroke-width="1">
    <line x1="0" y1="60" x2="800" y2="60"/><line x1="0" y1="120" x2="800" y2="120"/>
    <line x1="0" y1="180" x2="800" y2="180"/><line x1="0" y1="240" x2="800" y2="240"/>
    <line x1="0" y1="300" x2="800" y2="300"/><line x1="0" y1="360" x2="800" y2="360"/>
    <line x1="0" y1="420" x2="800" y2="420"/>
    <line x1="80" y1="0" x2="80" y2="500"/><line x1="160" y1="0" x2="160" y2="500"/>
    <line x1="240" y1="0" x2="240" y2="500"/><line x1="320" y1="0" x2="320" y2="500"/>
    <line x1="400" y1="0" x2="400" y2="500"/><line x1="480" y1="0" x2="480" y2="500"/>
    <line x1="560" y1="0" x2="560" y2="500"/><line x1="640" y1="0" x2="640" y2="500"/>
    <line x1="720" y1="0" x2="720" y2="500"/>
  </g>
  <!-- Pipe decorations -->
  <g stroke="#1e4d99" stroke-opacity="0.2" stroke-width="6" fill="none">
    <path d="M50,180 L200,180 L200,80 L400,80"/>
    <path d="M600,420 L600,300 L750,300"/>
    <path d="M100,350 L300,350 L300,260 L500,260"/>
  </g>
  <circle cx="400" cy="230" r="190" fill="#1e4d99" fill-opacity="0.05"/>
  <!-- Water drop icon -->
  <circle cx="400" cy="210" r="80" fill="#e8431a" fill-opacity="0.08" stroke="#e8431a" stroke-opacity="0.2" stroke-width="1"/>
  <path d="M400,155 L430,195 C442,215 442,235 430,248 C418,260 382,260 370,248 C358,235 358,215 370,195 Z" fill="url(#acc)" opacity="0.85"/>
  <ellipse cx="390" cy="230" rx="8" ry="12" fill="#ffffff" fill-opacity="0.15"/>
</svg>
