<svg xmlns="http://www.w3.org/2000/svg" viewBox="0 0 800 500">
  <defs>
    <linearGradient id="bg" x1="0%" y1="0%" x2="100%" y2="100%">
      <stop offset="0%" style="stop-color:#0f1115"/>
      <stop offset="100%" style="stop-color:#0d0e10"/>
    </linearGradient>
    <linearGradient id="acc" x1="0%" y1="0%" x2="100%" y2="100%">
      <stop offset="0%" style="stop-color:#e8431a"/>
      <stop offset="100%" style="stop-color:#c03510"/>
    </linearGradient>
  </defs>
  <rect width="800" height="500" fill="url(#bg)"/>
  <g stroke="#ffffff" stroke-opacity="0.03" stroke-width="1">
    <line x1="0" y1="50" x2="800" y2="50"/><line x1="0" y1="100" x2="800" y2="100"/>
    <line x1="0" y1="150" x2="800" y2="150"/><line x1="0" y1="200" x2="800" y2="200"/>
    <line x1="0" y1="250" x2="800" y2="250"/><line x1="0" y1="300" x2="800" y2="300"/>
    <line x1="0" y1="350" x2="800" y2="350"/><line x1="0" y1="400" x2="800" y2="400"/>
    <line x1="100" y1="0" x2="100" y2="500"/><line x1="200" y1="0" x2="200" y2="500"/>
    <line x1="300" y1="0" x2="300" y2="500"/><line x1="400" y1="0" x2="400" y2="500"/>
    <line x1="500" y1="0" x2="500" y2="500"/><line x1="600" y1="0" x2="600" y2="500"/>
    <line x1="700" y1="0" x2="700" y2="500"/>
  </g>
  <!-- Gear decorations background -->
  <circle cx="120" cy="120" r="60" fill="none" stroke="#e8431a" stroke-opacity="0.06" stroke-width="2"/>
  <circle cx="120" cy="120" r="40" fill="none" stroke="#e8431a" stroke-opacity="0.04" stroke-width="1"/>
  <circle cx="680" cy="350" r="80" fill="none" stroke="#e8431a" stroke-opacity="0.06" stroke-width="2"/>
  <circle cx="680" cy="350" r="55" fill="none" stroke="#e8431a" stroke-opacity="0.04" stroke-width="1"/>
  <circle cx="400" cy="230" r="190" fill="#e8431a" fill-opacity="0.04"/>
  <circle cx="400" cy="210" r="80" fill="#e8431a" fill-opacity="0.08" stroke="#e8431a" stroke-opacity="0.2" stroke-width="1"/>
  <!-- Wrench icon -->
  <g transform="translate(370, 165) rotate(-45 30 45)" fill="url(#acc)" opacity="0.9">
    <rect x="24" y="0" width="12" height="65" rx="4"/>
    <ellipse cx="30" cy="0" rx="18" ry="14"/>
    <ellipse cx="30" cy="65" rx="12" ry="10"/>
    <rect x="18" y="-6" width="8" height="12" fill="#0d0e10"/>
    <rect x="36" y="-6" width="8" height="12" fill="#0d0e10"/>
  </g>
  <rect x="0" y="380" width="800" height="120" fill="#000000" fill-opacity="0.5"/>
  <text x="50" y="435" font-family="Arial, sans-serif" font-size="26" font-weight="700" fill="#ffffff" letter-spacing="2">REPARACIONES GENERALES</text>
  <text x="50" y="460" font-family="Arial, sans-serif" font-size="14" fill="#e8431a" letter-spacing="1">Rápido · Limpio · Garantizado</text>
</svg>
